<svg xmlns="http://www.w3.org/2000/svg" enable-background="new 0 0 48 48" viewBox="0 0 48 48"><path d="M38.6 47.3c0 .4-.3.7-.7.7H10.1c-.4 0-.7-.3-.7-.7s.3-.7.7-.7h5.4V47h17v-.4h5.4C38.3 46.5 38.6 46.9 38.6 47.3zM44.8 6.4h-8.5C36.7 7.2 37 8 37.2 8.9h5.6c.4 0 .7.3.7.7v27.6c0 .4-.3.7-.7.7H5.1c-.4 0-.7-.3-.7-.7V9.6c0-.4.3-.7.7-.7h5.6c.2-.8.5-1.7.9-2.5H3.2C2.5 6.4 1.9 7 1.9 7.7v31.6c0 .7.6 1.2 1.2 1.2h41.7c.7 0 1.2-.6 1.2-1.2V7.7C46.1 7 45.5 6.4 44.8 6.4zM24 3.3c-1.2 0-2.3.7-2.8 1.8 2.4-.2 2.9-.7 3-.8C24.4 4.1 24.6 4 24.8 4l0 0c.3 0 .5.1.6.3 0 0 .5.8 1.4.9C26.4 4.1 25.3 3.3 24 3.3zM24.7 5.8c-.8.4-2 .7-3.7.8.1 1.2.8 2.4 1.8 3 .8.4 1.5.4 2.3 0C26 9 26.8 7.9 26.9 6.8 25.9 6.7 25.2 6.2 24.7 5.8zM28 14.7c-1-.9-2.5-1.4-4-1.4-3.3 0-5.6 2.1-5.6 5 0 .7.5 1.2 1.1 1.2h9c.6 0 1.1-.5 1.1-1.1C29.6 16.9 29.1 15.6 28 14.7zM28 14.7c-1-.9-2.5-1.4-4-1.4-3.3 0-5.6 2.1-5.6 5 0 .7.5 1.2 1.1 1.2h9c.6 0 1.1-.5 1.1-1.1C29.6 16.9 29.1 15.6 28 14.7zM24.7 5.8c-.8.4-2 .7-3.7.8.1 1.2.8 2.4 1.8 3 .8.4 1.5.4 2.3 0C26 9 26.8 7.9 26.9 6.8 25.9 6.7 25.2 6.2 24.7 5.8zM24 3.3c-1.2 0-2.3.7-2.8 1.8 2.4-.2 2.9-.7 3-.8C24.4 4.1 24.6 4 24.8 4l0 0c.3 0 .5.1.6.3 0 0 .5.8 1.4.9C26.4 4.1 25.3 3.3 24 3.3zM24 3.3c-1.2 0-2.3.7-2.8 1.8 2.4-.2 2.9-.7 3-.8C24.4 4.1 24.6 4 24.8 4l0 0c.3 0 .5.1.6.3 0 0 .5.8 1.4.9C26.4 4.1 25.3 3.3 24 3.3zM24.7 5.8c-.8.4-2 .7-3.7.8.1 1.2.8 2.4 1.8 3 .8.4 1.5.4 2.3 0C26 9 26.8 7.9 26.9 6.8 25.9 6.7 25.2 6.2 24.7 5.8zM28 14.7c-1-.9-2.5-1.4-4-1.4-3.3 0-5.6 2.1-5.6 5 0 .7.5 1.2 1.1 1.2h9c.6 0 1.1-.5 1.1-1.1C29.6 16.9 29.1 15.6 28 14.7zM28 14.7c-1-.9-2.5-1.4-4-1.4-3.3 0-5.6 2.1-5.6 5 0 .7.5 1.2 1.1 1.2h9c.6 0 1.1-.5 1.1-1.1C29.6 16.9 29.1 15.6 28 14.7zM24.7 5.8c-.8.4-2 .7-3.7.8.1 1.2.8 2.4 1.8 3 .8.4 1.5.4 2.3 0C26 9 26.8 7.9 26.9 6.8 25.9 6.7 25.2 6.2 24.7 5.8zM24 3.3c-1.2 0-2.3.7-2.8 1.8 2.4-.2 2.9-.7 3-.8C24.4 4.1 24.6 4 24.8 4l0 0c.3 0 .5.1.6.3 0 0 .5.8 1.4.9C26.4 4.1 25.3 3.3 24 3.3zM24 3.3c-1.2 0-2.3.7-2.8 1.8 2.4-.2 2.9-.7 3-.8C24.4 4.1 24.6 4 24.8 4l0 0c.3 0 .5.1.6.3 0 0 .5.8 1.4.9C26.4 4.1 25.3 3.3 24 3.3zM24.7 5.8c-.8.4-2 .7-3.7.8.1 1.2.8 2.4 1.8 3 .8.4 1.5.4 2.3 0C26 9 26.8 7.9 26.9 6.8 25.9 6.7 25.2 6.2 24.7 5.8zM28 14.7c-1-.9-2.5-1.4-4-1.4-3.3 0-5.6 2.1-5.6 5 0 .7.5 1.2 1.1 1.2h9c.6 0 1.1-.5 1.1-1.1C29.6 16.9 29.1 15.6 28 14.7zM28 14.7c-1-.9-2.5-1.4-4-1.4-3.3 0-5.6 2.1-5.6 5 0 .7.5 1.2 1.1 1.2h9c.6 0 1.1-.5 1.1-1.1C29.6 16.9 29.1 15.6 28 14.7zM24.7 5.8c-.8.4-2 .7-3.7.8.1 1.2.8 2.4 1.8 3 .8.4 1.5.4 2.3 0C26 9 26.8 7.9 26.9 6.8 25.9 6.7 25.2 6.2 24.7 5.8zM24.8 4L24.8 4c.3 0 .5.1.6.3 0 0 .5.8 1.4.9-.4-1.2-1.5-2-2.8-2-1.2 0-2.3.7-2.8 1.8 2.4-.2 2.9-.7 3-.8C24.4 4.1 24.6 4 24.8 4zM36 10.3c-.2-1.4-.7-2.8-1.4-4C32.4 2.4 28.4 0 24 0s-8.4 2.4-10.6 6.2c-.7 1.3-1.2 2.6-1.4 4-.1.6-.1 1.3-.1 1.9 0 6.7 5.4 12.1 12.1 12.1s12.1-5.4 12.1-12.1C36.1 11.5 36.1 10.9 36 10.3zM19.5 5.9c.2-2.3 2.1-4.1 4.5-4.1 1.2 0 2.2.4 3 1.2.8.7 1.3 1.7 1.4 2.9 0 .1 0 .3 0 .4 0 1.8-1.1 3.7-2.6 4.6-.6.4-1.2.5-1.9.5-.6 0-1.3-.2-1.9-.5-1.5-.9-2.6-2.8-2.6-4.6C19.5 6.2 19.5 6 19.5 5.9zM28.5 21h-9c-1.4 0-2.6-1.2-2.6-2.6 0-3.8 3-6.5 7.1-6.5 1.9 0 3.7.6 5 1.7 1.4 1.2 2.1 2.9 2.1 4.8C31.1 19.8 29.9 21 28.5 21zM24 13.3c-3.3 0-5.6 2.1-5.6 5 0 .7.5 1.2 1.1 1.2h9c.6 0 1.1-.5 1.1-1.1 0-1.5-.6-2.8-1.6-3.7S25.5 13.3 24 13.3zM22.8 9.6c.8.4 1.5.4 2.3 0C26 9 26.8 7.9 26.9 6.8c-1 0-1.8-.5-2.2-1-.8.4-2 .7-3.7.8C21.1 7.8 21.9 9 22.8 9.6zM24.8 4L24.8 4c.3 0 .5.1.6.3 0 0 .5.8 1.4.9-.4-1.2-1.5-2-2.8-2-1.2 0-2.3.7-2.8 1.8 2.4-.2 2.9-.7 3-.8C24.4 4.1 24.6 4 24.8 4zM24 3.3c-1.2 0-2.3.7-2.8 1.8 2.4-.2 2.9-.7 3-.8C24.4 4.1 24.6 4 24.8 4l0 0c.3 0 .5.1.6.3 0 0 .5.8 1.4.9C26.4 4.1 25.3 3.3 24 3.3zM24.7 5.8c-.8.4-2 .7-3.7.8.1 1.2.8 2.4 1.8 3 .8.4 1.5.4 2.3 0C26 9 26.8 7.9 26.9 6.8 25.9 6.7 25.2 6.2 24.7 5.8zM28 14.7c-1-.9-2.5-1.4-4-1.4-3.3 0-5.6 2.1-5.6 5 0 .7.5 1.2 1.1 1.2h9c.6 0 1.1-.5 1.1-1.1C29.6 16.9 29.1 15.6 28 14.7zM28 14.7c-1-.9-2.5-1.4-4-1.4-3.3 0-5.6 2.1-5.6 5 0 .7.5 1.2 1.1 1.2h9c.6 0 1.1-.5 1.1-1.1C29.6 16.9 29.1 15.6 28 14.7zM24.7 5.8c-.8.4-2 .7-3.7.8.1 1.2.8 2.4 1.8 3 .8.4 1.5.4 2.3 0C26 9 26.8 7.9 26.9 6.8 25.9 6.7 25.2 6.2 24.7 5.8zM24 3.3c-1.2 0-2.3.7-2.8 1.8 2.4-.2 2.9-.7 3-.8C24.4 4.1 24.6 4 24.8 4l0 0c.3 0 .5.1.6.3 0 0 .5.8 1.4.9C26.4 4.1 25.3 3.3 24 3.3zM24 3.3c-1.2 0-2.3.7-2.8 1.8 2.4-.2 2.9-.7 3-.8C24.4 4.1 24.6 4 24.8 4l0 0c.3 0 .5.1.6.3 0 0 .5.8 1.4.9C26.4 4.1 25.3 3.3 24 3.3zM24.7 5.8c-.8.4-2 .7-3.7.8.1 1.2.8 2.4 1.8 3 .8.4 1.5.4 2.3 0C26 9 26.8 7.9 26.9 6.8 25.9 6.7 25.2 6.2 24.7 5.8zM28 14.7c-1-.9-2.5-1.4-4-1.4-3.3 0-5.6 2.1-5.6 5 0 .7.5 1.2 1.1 1.2h9c.6 0 1.1-.5 1.1-1.1C29.6 16.9 29.1 15.6 28 14.7zM28 14.7c-1-.9-2.5-1.4-4-1.4-3.3 0-5.6 2.1-5.6 5 0 .7.5 1.2 1.1 1.2h9c.6 0 1.1-.5 1.1-1.1C29.6 16.9 29.1 15.6 28 14.7zM24.7 5.8c-.8.4-2 .7-3.7.8.1 1.2.8 2.4 1.8 3 .8.4 1.5.4 2.3 0C26 9 26.8 7.9 26.9 6.8 25.9 6.7 25.2 6.2 24.7 5.8zM24 3.3c-1.2 0-2.3.7-2.8 1.8 2.4-.2 2.9-.7 3-.8C24.4 4.1 24.6 4 24.8 4l0 0c.3 0 .5.1.6.3 0 0 .5.8 1.4.9C26.4 4.1 25.3 3.3 24 3.3zM24 3.3c-1.2 0-2.3.7-2.8 1.8 2.4-.2 2.9-.7 3-.8C24.4 4.1 24.6 4 24.8 4l0 0c.3 0 .5.1.6.3 0 0 .5.8 1.4.9C26.4 4.1 25.3 3.3 24 3.3zM24.7 5.8c-.8.4-2 .7-3.7.8.1 1.2.8 2.4 1.8 3 .8.4 1.5.4 2.3 0C26 9 26.8 7.9 26.9 6.8 25.9 6.7 25.2 6.2 24.7 5.8zM24.7 5.8c-.8.4-2 .7-3.7.8.1 1.2.8 2.4 1.8 3 .8.4 1.5.4 2.3 0C26 9 26.8 7.9 26.9 6.8 25.9 6.7 25.2 6.2 24.7 5.8zM24 3.3c-1.2 0-2.3.7-2.8 1.8 2.4-.2 2.9-.7 3-.8C24.4 4.1 24.6 4 24.8 4l0 0c.3 0 .5.1.6.3 0 0 .5.8 1.4.9C26.4 4.1 25.3 3.3 24 3.3zM37.5 10.4c.1.6.1 1.2.1 1.7 0 7.5-6.1 13.6-13.6 13.6s-13.6-6.1-13.6-13.6c0-.6 0-1.1.1-1.7H5.9v26.2h36.2V10.4H37.5zM16.1 31.2c.4.2.5.7.3 1-.1.2-.4.4-.6.4-.1 0-.3 0-.4-.1l-.6-.3v.7c0 .4-.3.7-.7.7s-.7-.3-.7-.7v-.7l-.6.3c-.1.1-.2.1-.4.1-.3 0-.5-.1-.6-.4-.2-.4-.1-.8.3-1l.6-.3-.6-.3c-.4-.2-.5-.7-.3-1 .2-.4.7-.5 1-.3l.6.3v-.7c0-.4.3-.7.7-.7s.7.3.7.7v.7l.6-.3c.4-.2.8-.1 1 .3s.1.8-.3 1l-.6.3L16.1 31.2zM22.7 31.2c.4.2.5.7.3 1-.1.2-.4.4-.6.4-.1 0-.3 0-.4-.1l-.6-.3v.7c0 .4-.3.7-.7.7-.4 0-.7-.3-.7-.7v-.7l-.6.3c-.1.1-.3.1-.4.1-.3 0-.5-.1-.6-.4-.2-.4-.1-.8.3-1l.6-.3-.6-.3c-.4-.2-.5-.7-.3-1 .2-.4.7-.5 1-.3l.6.3v-.7c0-.4.3-.7.7-.7.4 0 .7.3.7.7v.7l.6-.3c.4-.2.8-.1 1 .3s.1.8-.3 1l-.6.3L22.7 31.2zM29.4 31.2c.4.2.5.7.3 1-.1.2-.4.4-.6.4-.1 0-.3 0-.4-.1l-.6-.3v.7c0 .4-.3.7-.7.7-.4 0-.7-.3-.7-.7v-.7L26 32.5c-.1.1-.2.1-.4.1-.3 0-.5-.1-.6-.4-.2-.4-.1-.8.3-1l.6-.3-.6-.3c-.4-.2-.5-.7-.3-1 .2-.4.7-.5 1-.3l.6.3v-.7c0-.4.3-.7.7-.7.4 0 .7.3.7.7v.7l.6-.3c.4-.2.8-.1 1 .3s.1.8-.3 1l-.6.3L29.4 31.2zM36 31.2c.4.2.5.7.3 1-.1.2-.4.4-.6.4-.1 0-.3 0-.4-.1l-.6-.3v.7c0 .4-.3.7-.7.7s-.7-.3-.7-.7v-.7l-.6.3c-.1.1-.3.1-.4.1-.3 0-.5-.1-.6-.4-.2-.4-.1-.8.3-1l.6-.3L32 30.6c-.4-.2-.5-.7-.3-1 .2-.4.7-.5 1-.3l.6.3v-.7c0-.4.3-.7.7-.7s.7.3.7.7v.7l.6-.3c.4-.2.8-.1 1 .3s.1.8-.3 1l-.6.3L36 31.2z"/><rect width="17" height="4.9" x="15.5" y="42"/></svg>